<svg width="174" height="23" viewBox="0 0 174 23" fill="none" xmlns="http://www.w3.org/2000/svg">
<g clip-path="url(#clip0_739_19271)">
<path d="M13.185 1.21411V9.64467H4.53648V1.21411H0.0649414V22.4462H4.53648V13.5591H13.185V22.4462H17.6565V1.21411H13.185Z" fill="#181B1C"/>
<path d="M46.1954 18.499V1.21411H41.7192V18.5622C41.7192 21.0813 43.0655 22.4462 45.5372 22.4462H55.7069V18.499H46.1954Z" fill="#181B1C"/>
<path d="M20.4634 11.6043C20.4634 4.45902 25.0017 0.764648 30.1774 0.764648C35.0494 0.764648 38.6188 3.79178 39.1458 8.36409H34.8008C34.5247 6.15403 32.6146 4.66972 30.1774 4.66972C27.0499 4.66972 24.6426 7.0624 24.6426 11.6019C24.6426 16.1415 27.0499 18.5037 30.1774 18.5037C32.6675 18.5037 34.5776 17.0194 34.9113 14.8398H39.063C38.7039 19.3817 35.1322 22.4392 30.1774 22.4392C24.9188 22.4392 20.4634 18.7449 20.4634 11.5996V11.6043Z" fill="#181B1C"/>
<path d="M57.2981 14.9309H62.3656C62.4853 16.7196 63.6774 17.8738 65.4656 17.8738C67.0466 17.8738 68.0592 17.1153 68.0592 15.933C68.0592 12.3533 57.832 15.5982 57.832 6.95457C57.832 3.34448 60.8744 0.766846 65.1365 0.766846C69.7875 0.766846 72.8598 3.46622 72.9174 7.6218H67.9073C67.7877 6.2569 66.7751 5.37662 65.1342 5.37662C63.8224 5.37662 62.9571 6.01341 62.9571 6.95457C62.9571 10.9275 73.3638 7.25892 73.3638 15.8417C73.3638 19.8755 70.2639 22.4836 65.4633 22.4836C60.6626 22.4836 57.443 19.5103 57.2935 14.9309H57.2981Z" fill="#181B1C"/>
<path d="M116.381 22.4485H120.585L122.969 14.046L125.296 22.4485H129.501L134.511 7.16064H129.591L127.383 15.4414L125.147 7.16064H120.735L118.528 15.4414L116.291 7.16064H116.293H107.879V0.5H102.959V7.16298H97.3462V4.59939H101.461V0.5H96.0643C93.9172 0.5 92.4259 1.99133 92.4259 4.17564V7.16298H89.0245V9.94897C87.6114 7.95195 85.2594 6.72518 82.4081 6.72518C77.7271 6.72518 74.3579 10.0918 74.3579 14.6126C74.3579 19.1334 77.7271 22.5 82.4081 22.5C87.089 22.5 90.4582 19.1334 90.4582 14.6126C90.4582 13.4186 90.2235 12.3042 89.7908 11.3115L92.4259 11.3162V22.4508H97.3462V11.2881H102.959V18.7494C102.959 21.1164 104.271 22.4508 106.598 22.4508H111.668V18.3257H107.882V11.2881H111.587V7.74359L116.383 22.4485H116.381ZM82.4104 18.2484C80.5325 18.2484 79.2805 16.7922 79.2805 14.6079C79.2805 12.4236 80.5325 10.9674 82.4104 10.9674C84.2883 10.9674 85.5402 12.4236 85.5402 14.6079C85.5402 16.7922 84.2883 18.2484 82.4104 18.2484Z" fill="#181B1C"/>
<path d="M134.261 17.9207C134.261 14.917 136.408 13.0979 139.568 13.0979H141.715C142.49 13.0979 142.907 12.5524 142.907 11.8243C142.907 10.9136 142.161 10.2768 140.819 10.2768C139.179 10.2768 138.583 11.3092 138.553 12.4002H134.258C134.378 9.30517 136.672 6.72754 141.116 6.72754C144.872 6.72754 147.795 8.97272 147.795 12.4306V22.4438H142.905V20.3766C142.518 21.6502 140.997 22.5 139.059 22.5C136.256 22.5 134.258 20.4679 134.258 17.9207H134.261ZM140.433 19.0117C142.014 19.0117 142.907 17.6772 142.907 16.2514V16.1297H140.403C139.538 16.1297 138.912 16.7665 138.912 17.6772C138.912 18.4662 139.568 19.0117 140.433 19.0117Z" fill="#181B1C"/>
<path d="M158.56 11.3115C158.144 12.3814 157.951 13.5285 157.951 14.6102C157.951 18.2203 160.395 22.4976 165.791 22.4976C169.49 22.4976 172.44 20.3437 173.066 16.9467H168.325C168.056 17.9791 167.133 18.4637 165.791 18.4637C164.003 18.4637 162.958 17.4922 162.661 15.7948H173.008C173.038 15.4319 173.068 15.0058 173.068 14.3082C173.068 11.0937 171.19 6.7251 165.494 6.7251C162.705 6.7251 160.784 7.86759 159.578 9.46895V9.32614V7.1629H152.961C150.814 7.1629 149.323 8.67998 149.323 10.8643V22.4508H154.243V11.3091H158.56V11.3115ZM165.492 10.2743C167.191 10.2743 168.116 11.5175 168.205 12.8215H162.659C162.988 10.972 163.911 10.2743 165.492 10.2743Z" fill="#181B1C"/>
</g>
<defs>
<clipPath id="clip0_739_19271">
<rect width="173" height="22" fill="white" transform="translate(0.0649414 0.5)"/>
</clipPath>
</defs>
</svg>
